<svg version="1.1" id="Layer_1" xmlns="http://www.w3.org/2000/svg" x="0" y="0" viewBox="0 0 1000 1000" xml:space="preserve">
  <style>
    .st0{fill:"white"}
  </style>
  <path fill="white" d="M494.4 227.1h18.4v117.3h-18.4zM314.5 599.7c8.2-3.9 11.9-11.6 11.9-23.6v-4.2c0-18.1-8.2-27-27.3-27h-27.8v117.3h29c18.4 0 28-9.7 28-27.8v-9.6c0-12.3-3.9-21.2-13.8-25.1zm-24.8-38h8.9c6.5 0 9.4 3.7 9.4 12.1v6.5c0 9.4-4.2 12.4-11.1 12.4h-7.2v-31zm20.1 72.2c0 8.7-3.4 11.6-9.6 11.6h-10.6v-36h8.2c8.4 0 11.9 3.4 11.9 14.2v10.2zm84.8-4c0-12.2-3-21.1-12.2-25 8.2-3.9 12.1-11.7 12.1-23.8v-9.2c0-18.1-8.2-27-27.3-27h-27.8v117.3h18.4v-47.8h6.4c8.4 0 12.1 4 12.1 14.9v18.4c0 9.6.7 11.4 1.7 14.4h18.8c-1.8-4.4-2-8.5-2-14.2v-18zM376 585.3c0 9.4-4.2 12.4-11.1 12.4h-7.2v-36h8.9c6.5 0 9.4 3.7 9.4 12.1v11.5zm30.7-40.4H457v16.8h-31.8v32.7h25.3v16.8h-25.3v34.4H457v16.8h-50.3V544.9zm75.6 0l-18.8 117.3h16.9l3.2-21.3h22.6l3.2 21.3H528l-18.8-117.3h-26.9zM486 625l8.9-59.3 8.9 59.3H486zm38.9-80.1h57v16.8h-19.3v100.6h-18.4V561.7h-19.3v-16.8zm104.4 0h18.8v117.3h-18.8v-50.3h-21v50.3h-18.4V544.9h18.4v50.3h21v-50.3zm32.2 0h50.3v16.8H680v32.7h25.3v16.8H680v34.4h31.8v16.8h-50.3V544.9zm80.1 0v48.9l-2.3 42.4h-13.7l-2.3-42.4v-48.9h18.3zm-18.1 99.6h17.8v17.8h-17.8v-17.8zM407.2 470.9c0 18.8-9.4 29.5-27.5 29.5s-27.5-10.7-27.5-29.5v-61c0-18.8 9.4-29.5 27.5-29.5s27.5 10.7 27.5 29.5v11.4h-17.4v-12.6c0-8.4-3.7-11.6-9.6-11.6-5.9 0-9.6 3.2-9.6 11.6v63.4c0 8.4 3.7 11.4 9.6 11.4 5.9 0 9.6-3 9.6-11.4v-16.8h17.4v15.6zm70.9 28.2h-18.6l-3.2-21.3h-22.6l-3.2 21.3h-16.9l18.8-117.3h27l18.7 117.3zm-24.3-37.2l-8.9-59.3-8.9 59.3h17.8zm49.3-47.8l23 85H545V381.7h-16.4V452l-18.9-70.2h-23.1v117.3h16.6v-85zm57.3 2.2h7.5l8-18.6v-15.9h-17.8v17.8h7l-4.7 16.7zm42.9 82.8h18.4V398.5H641v-16.8h-57v16.8h19.3v100.6zM149.9 407.1l-27.1-7.9 1.6-5.4c3.3-11.3-1.3-18.7-12.9-22.1l-9.4-2.7c-11.5-3.4-19.4.3-22.7 11.7l-4.9 16.7 72 21.1 3.4-11.4zm-35.8-16.3l-1.6 5.3-24.4-7.1 1.6-5.4c1.1-3.6 3.3-5.1 8.4-3.6l10.8 3.2c5.2 1.6 6.2 4 5.2 7.6zm47.3-18.8l-68.7-30.1 4.7-10.8 58.9 25.8 7.8-17.8 9.8 4.3-12.5 28.6zm18.8-40.6l-64.3-38.6 16.6-27.6 9.2 5.5-10.5 17.5 17.9 10.8 8.3-13.9 9.2 5.5-8.3 13.9 18.8 11.3 10.5-17.5 9.2 5.5-16.6 27.6zm30.3-46.3l-9.3-10.1 9.1-11.3 11.9 7 7.5-9.3-66-37.8-10.8 13.4 50.9 56.5 6.7-8.4zm-42.3-45.9l33.1 19.4-7.1 8.9-26-28.3zm30.9-28.2c-8.2-8.8-8.6-17.8-.3-25.6 8.4-7.9 17.4-6.9 25.6 1.9l1.6 1.7-8.1 7.6-2.1-2.3c-3.7-3.9-6.6-3.9-9.4-1.4-2.7 2.6-2.9 5.5.8 9.4 10.6 11.3 29.4-2.4 44 13.2 8.2 8.8 8.5 17.9.1 25.8-8.4 7.9-17.5 7-25.7-1.7l-3.2-3.4 8.1-7.6 3.7 3.9c3.7 3.9 6.7 3.7 9.4 1.1s3.1-5.6-.5-9.5c-10.6-11.2-29.4 2.5-44-13.1zm76.1 8.3l-43.8-61 26.1-18.8 6.3 8.7-16.5 11.9 12.2 17 13.1-9.4 6.3 8.7-13.2 9.4 12.8 17.8 16.5-11.9 6.3 8.7-26.1 18.9zm40-27l-5.6-9.9 9.9-5.6 5 8.9 1.4 12.9-4.2 2.4-2.6-10.9-3.9 2.2zm60.1-28.4l-9.4-26.6 5.3-1.9c11.1-3.9 14.4-12 10.4-23.3l-3.3-9.2c-4-11.3-11.6-15.6-22.8-11.6l-16.4 5.8 25 70.8 11.2-4zm-21.5-60.7l5.3-1.9c3.5-1.2 6-.3 7.8 4.7l3.8 10.6c1.8 5.1.4 7.3-3.1 8.6l-5.3 1.9-8.5-23.9zm56.7 49.5l-15.7-73.4 11.5-2.5 13.5 62.9 19-4.1 2.2 10.5-30.5 6.6zm43.9-8.4l-6.2-74.8 32.1-2.7.9 10.7-20.3 1.7 1.7 20.8 16.1-1.3.9 10.7-16.1 1.3 1.8 21.9 20.3-1.7.9 10.7-32.1 2.7zm58.1-16l14.5.8 1.3 13.7 11.9.7-7.9-75.6L515 67l-16.1 74.3 10.8.6 2.8-13.6zm9.8-47.6l3.6 38.2-11.3-.6 7.7-37.6zm33 46.8l.9-4.5 10.9 2.1-1 5.3c-1 5.3.9 7.6 4.6 8.3 3.7.7 6.4-.7 7.4-6 2.9-15.2-19.1-22.4-15.1-43.4 2.3-11.8 9.4-17.4 20.6-15.2 11.3 2.2 15.7 10 13.5 21.8l-.5 2.3-10.9-2.2.6-3.1c1-5.3-.7-7.7-4.4-8.4s-6.2.9-7.2 6.1c-2.9 15.2 19.1 22.4 15.1 43.4-2.3 11.8-9.5 17.4-20.9 15.2-11.3-2.1-15.9-9.9-13.6-21.7zm76.2 38.5L601 155.8l23.8-71.2 30.5 10.2-3.4 10.2-19.3-6.4-6.6 19.8 15.4 5.1-3.4 10.2-15.4-5.1-7 20.8 19.3 6.4-3.4 10.2zm11.5 16.8l7.3-8.5-4.1-1.9 4.7-10.3 10.3 4.7-4.2 9.3-9.6 8.7-4.4-2zm77.4-1.4l4.6 3.2c9.7 6.7 18.2 4.7 25-5.2l5.6-8c6.9-9.9 5.8-18.5-3.8-25.3l-14.2-9.9-42.9 61.6 9.7 6.7 16-23.1zm20.7-29.6l4.6 3.2c3.1 2.1 3.8 4.7.7 9.1l-6.4 9.2c-3.1 4.4-5.7 4.6-8.8 2.5l-4.6-3.2 14.5-20.8zm-7.2 74.9l50.4-55.6 8.7 7.9-43.2 47.6 14.4 13-7.2 7.9-23.1-20.8zm32.5 30.8l57.1-48.7 20.9 24.5-8.2 7-13.2-15.6-15.9 13.6 10.5 12.3-8.2 7-10.5-12.3-16.7 14.3 13.2 15.5-8.2 7-20.8-24.6zm34.4 43.4l12.6-5.6 7.8 12.2-10.4 9.1 6.4 10 56.7-50.6-9.3-14.5-69.6 30.3 5.8 9.1zm57-25.6l-28.9 25.3-6.1-9.6 35-15.7zm16.9 38.1c10.9-5 19.6-2.6 24.4 7.8 4.8 10.4 1.1 18.6-9.8 23.7l-2.1 1-4.7-10.1 2.8-1.3c4.9-2.3 5.8-5.1 4.2-8.5-1.6-3.4-4.3-4.5-9.2-2.2-14 6.5-7 28.6-26.4 37.6-10.9 5-19.6 2.5-24.5-8-4.9-10.5-1.2-18.8 9.7-23.9l4.2-1.9 4.7 10.1-4.9 2.2c-4.9 2.3-5.6 5.2-4.1 8.6 1.6 3.4 4.3 4.7 9.2 2.5 14.1-6.4 7-28.6 26.5-37.6zm-31.9 69.7l71.6-22.3 9.6 30.7-10.2 3.2-6-19.4-20 6.2 4.8 15.5-10.2 3.2-4.8-15.5-21 6.5 6.1 19.4-10.2 3.2-9.7-30.7zM112.7 634.8c7.6-2.2 12.4-6.1 13.1-12.8 3.8 4.4 9.2 5.3 16.6 3.2l2.6-.7c11.1-3.1 15.2-9.7 11.9-21.5l-4.8-17.1-72.2 20.4 5 17.9c3.2 11.4 10.8 15.5 22 12.4l5.8-1.8zm32.2-34.7l1.5 5.5c1.1 4-.6 6.4-5.8 7.9l-4 1.1c-5.8 1.6-8.4-.4-9.6-4.7l-1.2-4.4 19.1-5.4zm-49.8 21l-1.8-6.5 22.2-6.3 1.4 5.1c1.5 5.2 0 7.9-6.7 9.8l-6.3 1.8c-5.3 1.5-7.7-.1-8.8-3.9zm22.2 60.1l8.2 17.6-9.7 4.5-13.2-28.3 68-31.7 5 10.7-58.3 27.2zm82.4 17l-68.9 32.2 6.1 9 12.4-6 8.1 12-10.1 9.3 6.7 9.9 55.4-52-9.7-14.4zM165 738.3l-6.4-9.4 34.6-16.6-28.2 26zm31 48.9c-3.9 3.7-3.7 6.7-1.1 9.5 2.6 2.7 5.6 3.1 9.5-.6l7.8-7.4 7.7 8.1-7.2 6.9c-8.7 8.3-17.8 8.7-25.8.3-8-8.4-7.2-17.5 1.5-25.7l28.3-26.9c8.7-8.3 17.8-8.7 25.8-.3 8 8.4 7.2 17.5-1.5 25.7l-5.3 5-7.7-8.1 5.8-5.5c3.9-3.7 3.7-6.8 1.1-9.5s-5.7-3-9.6.7L196 787.2zm97.6 9.4l9.4 7.1-33.2 16.9-11.8 43.1-9.7-7.3 8.8-30.8-7 3.3-13.8 18.4-9.4-7.1 45-60 9.4 7.1-19.6 26.2 31.9-16.9zm71 39l-24.1 59.6 18 7.3-4 9.9-28.9-11.7 28.1-69.6 10.9 4.5zm40 13.8l11.4 3-18.8 72.6-11.4-3 18.8-72.6zm63.6 11.5l10.8 1.2-20.1 73.2-17.5-2-2.9-75.9 11.8 1.4 1.9 61.8 16-59.7zm68.3 64.3l.5 10.7-32.1 1.6-3.7-75 32.1-1.6.5 10.7-20.3 1 1 20.9 16.2-.8.5 10.7-16.2.8 1.1 22 20.4-1zm65-18.2c2.4 11.8-2.1 19.7-13.4 22-11.3 2.4-18.6-3.2-21-14.9l-.9-4.5 10.9-2.3 1.1 5.2c1.1 5.3 3.8 6.7 7.5 5.9 3.7-.8 5.6-3.1 4.5-8.4-3.1-15.1-26.3-13.3-30.6-34.3-2.4-11.8 1.9-19.7 13.2-22 11.2-2.3 18.4 3.2 20.8 15l.5 2.3-10.9 2.3-.6-3c-1.1-5.3-3.6-6.8-7.3-6.1-3.7.8-5.4 3.2-4.3 8.4 3 15.3 26.2 13.4 30.5 34.4zm87.3-97.8l35.2 66.3-9.8 5.2-25.2-47.6 18.1 51.3-9.8 5.2-32.8-42.6 24.9 46.9-9.1 4.8-35.2-66.3 14.5-7.7 32.7 43-17.9-50.8 14.4-7.7zm27.3-19.8l37.6 66.1 8.5-6.8-6.9-11.9 11.3-9.1 10.1 9.3 9.3-7.4-56.3-51-13.6 10.8zm42.8 31.4l-8.9 7.1-19.3-33.2 28.2 26.1zm15.3-70.8l47.3 43.6-8 8.7-47.3-43.6-8.4 9.1-7.9-7.3 24.7-26.8 7.9 7.3-8.3 9zm34.5-45.1l53.4 35.8-6.6 9.8-53.4-35.8-6.9 10.2-8.9-6 20.3-30.3 8.9 6-6.8 10.3zm80.5-37.9l9.7 4.5-13.5 29.2-68.1-31.5 13.5-29.2 9.7 4.5L832 663l19 8.8 6.8-14.7 9.7 4.5-6.8 14.7 19.9 9.2 8.6-18.5zm23-66.2l-11.2-3.1c-7.5-2.1-13.5-1.7-17.5 3.3-1-5.7-5.2-9.4-12.6-11.5l-5.7-1.6c-11.2-3.1-18 .5-21.3 12.2l-4.7 17.2 72.3 20 3.1-11.4-29.4-8.1 1.1-3.9c1.4-5.2 4.5-6.8 11.3-4.9l11.4 3.1c5.9 1.6 7.1 1.5 9.2 1.4l3.2-11.6c-3.1.5-5.7-.1-9.2-1.1zm-36.1 9.7l-1.2 4.4-22.2-6.1 1.5-5.5c1.1-4 3.9-5.2 9-3.7l7.1 2c5.8 1.6 7 4.7 5.8 8.9z"/>
  <circle fill="white" cx="894.8" cy="505.6" r="21.4" />
  <circle fill="white" cx="99.3" cy="505.6" r="21.4"/>
  <path fill="white" d="M835.3 496.8c0-184.9-150.4-335.3-335.3-335.3S164.7 311.9 164.7 496.8 315.1 832.1 500 832.1s335.3-150.4 335.3-335.3zM500 822.6c-179.6 0-325.7-146.1-325.7-325.7S320.4 171.1 500 171.1s325.7 146.1 325.7 325.7S679.6 822.6 500 822.6z"/>
  <path fill="white" d="M500 27.5c-260.6 0-472.6 212-472.6 472.5s212 472.5 472.6 472.5 472.5-212 472.5-472.5S760.6 27.5 500 27.5zm0 931.6c-253.2 0-459.1-206-459.1-459.1S246.8 40.9 500 40.9c253.2 0 459.1 206 459.1 459.1S753.2 959.1 500 959.1z"/>
</svg>
